<?xml version="1.0" encoding="utf-8"?>
<!-- Generator: Adobe Illustrator 27.5.0, SVG Export Plug-In . SVG Version: 6.00 Build 0)  -->
<svg version="1.1" id="Layer_1" xmlns="http://www.w3.org/2000/svg" xmlns:xlink="http://www.w3.org/1999/xlink" x="0px" y="0px"
	 viewBox="0 0 512 512" style="enable-background:new 0 0 512 512;" xml:space="preserve">
<g>
	<path d="M448,42.96c17.67,0,32,14.33,32,32v256c0,17.67-14.33,32-32,32H141.25c-16.97,0-33.25,6.75-45.25,18.75l-64,64V74.96
		c0-17.67,14.33-32,32-32H448z M64,10.96c-35.35,0-64,28.65-64,64v409.38c0,8.84,7.17,16,16,16c4.25,0,8.32-1.69,11.32-4.7
		l91.3-91.3c6-6,14.14-9.37,22.62-9.38H448c35.35,0,64-28.65,64-64v-256c0-35.35-28.65-64-64-64H64z"/>
	<path d="M96,122.96c0-8.84,7.16-16,16-16h288c8.84,0,16,7.16,16,16s-7.16,16-16,16H112C103.16,138.96,96,131.8,96,122.96z
		 M96,202.96c0-8.84,7.16-16,16-16h288c8.84,0,16,7.16,16,16s-7.16,16-16,16H112C103.16,218.96,96,211.8,96,202.96z M96,282.96
		c0-8.84,7.16-16,16-16h160c8.84,0,16,7.16,16,16s-7.16,16-16,16H112C103.16,298.96,96,291.8,96,282.96z"/>
</g>
</svg>
