<?xml version="1.0" encoding="utf-8"?>
<!-- Generator: Adobe Illustrator 21.0.0, SVG Export Plug-In . SVG Version: 6.00 Build 0)  -->
<svg version="1.1" id="Layer_1" xmlns="http://www.w3.org/2000/svg" xmlns:xlink="http://www.w3.org/1999/xlink" x="0px" y="0px"
	 viewBox="0 0 512 512" style="enable-background:new 0 0 512 512;" xml:space="preserve">
<path d="M511.4,406.1c-0.6-3.1-1.8-5.9-3.1-8.3c-1-1.8-2.1-3.4-3.2-5c-1.7-2.3-3.6-4.5-5.8-6.9c-2.2-2.4-4.6-5-7.5-7.9l-12.9,12.8
	l-13,12.9c2.7,2.7,4.9,5,6.5,6.8c0.7,0.8,1.3,1.5,1.8,2.1c-0.4,1-1,2.1-1.5,3.5V416c-3.9,9.3-8.7,18.1-14.2,26.5v-0.1
	c-2.8,4.2-5.4,7.9-7.9,11c-3.7,4.7-7.1,8.1-10.5,10.9c-3.5,2.8-7,5-11.6,7.1c-2.4,1.1-4.7,2-7.6,2.8c-2.9,0.7-6.3,1.3-10.9,1.3
	c-7,0-16.7-1.3-30.2-5.7s-30.7-11.9-52.3-24c-29.5-16.6-54-31.7-77.6-49c-23.6-17.4-46.3-37.1-72.4-63.1
	c-13.1-13.1-24.5-24.9-34.6-36.3c-15.3-17-27.9-33-40.1-50.9c-12.2-17.9-24.1-37.7-37.7-62.4c-11.4-20.8-18.6-38-22.9-52.1
	c-4.3-14-5.7-24.8-5.7-32.7c0-8.4,1.6-13.5,2.8-16c1.4-3,2.9-5.6,4.5-8c2.5-3.6,5.4-6.9,9.3-10.4c3.9-3.5,8.9-7.3,15.3-11.5
	l-0.1,0.1c8.4-5.5,17.3-10.3,26.6-14.2h-0.1c1.4-0.6,2.6-1.1,3.6-1.5c0.2,0.2,0.5,0.4,0.7,0.6c2,1.7,4.7,4.3,8.2,7.7
	c1.8,1.8,3.9,4.1,6.2,6.7c4,4.6,8.4,10.4,12.9,16.6c6.7,9.4,13.5,19.8,19.4,29.6c2.9,4.9,5.6,9.6,8,13.8c2.3,4.3,4.3,8.1,5.7,11.1
	c3.2,6.9,5.6,12.1,6.9,15.6c0.6,1.7,1,3,1.2,3.9c0.2,0.9,0.2,1.3,0.2,1.4c0,0.2,0,0.2-0.1,0.4c0,0.2-0.2,0.5-0.4,1.1
	c-0.4,0.8-1.1,2.2-2.3,4c-1.2,1.8-2.8,4.1-4.8,6.8c-2.1,2.9-4.3,5.7-6.5,8.6c-1.7,2.2-3.4,4.5-5,7c-2.5,3.7-4.9,7.9-6.7,12.9
	c-0.9,2.5-1.7,5.1-2.2,7.9s-0.8,5.7-0.8,8.6c0,3.6,0.4,7.2,1.2,10.8c0.7,3.2,1.7,6.4,2.9,9.8c2.2,5.8,5.1,12.1,8.7,18.9
	c5.5,10.2,12.5,21.4,21.1,33c8.6,11.6,18.6,23.5,30,34.8c17.3,17.3,35.7,31.2,52.3,41.5c8.3,5.2,16.2,9.4,23.3,12.7
	c3.6,1.7,7,3.1,10.3,4.3s6.5,2.1,9.6,2.8c3.6,0.8,7.3,1.2,10.9,1.2c5.2,0,10.3-0.9,14.7-2.4c3.4-1.1,6.5-2.5,9.3-4.1
	c4.2-2.3,7.9-4.9,11.3-7.4c3.4-2.5,6.6-5,9.8-7.4c2.6-1.9,4.9-3.6,6.7-4.8c1.4-0.9,2.5-1.7,3.5-2.2c1.4-0.8,2.2-1.1,2.5-1.2h0.1h0.1
	c0,0,0.1,0,0.1,0c0.2,0,0.8,0.1,1.7,0.4c1.4,0.4,3.7,1.4,6.7,2.8c3,1.4,6.8,3.3,11.3,5.6c4.9,2.5,11.4,6,18.5,10.2
	c10.7,6.2,23,13.9,34,21.5c5.5,3.8,10.7,7.6,15.2,11.1s8.3,6.9,10.9,9.5l13.2-12.7l13-12.9c-2.8-2.8-5.8-5.6-9.1-8.3
	c-5.8-4.8-12.3-9.7-19.2-14.6c-10.4-7.3-21.6-14.4-32-20.7c-5.2-3.1-10.3-6.1-15-8.7c-4.7-2.6-9-4.9-12.8-6.8
	c-7-3.5-12.5-6.3-18.1-8.6c-2.8-1.1-5.6-2.1-8.6-2.9s-6.3-1.2-9.7-1.2c-3.4,0-6.9,0.5-10,1.4c-2.4,0.7-4.6,1.6-6.7,2.6
	c-3.2,1.5-6,3.2-8.9,5.1c-2.9,1.9-5.8,4-9,6.4c-3.3,2.5-6.3,4.8-8.8,6.7c-1.9,1.4-3.7,2.7-5.2,3.7c-2.3,1.5-4.1,2.4-5.5,2.9
	c-0.7,0.3-1.3,0.4-1.9,0.5c-0.6,0.1-1.2,0.2-1.9,0.2c-0.9,0-1.9-0.1-3.2-0.4c-1.1-0.2-2.8-0.7-4.9-1.5c-3.7-1.3-8.6-3.5-14.1-6.4
	c-8.2-4.3-17.9-10.3-28-17.7c-10.1-7.4-20.5-16.1-30.4-26c-15.1-15.1-27.9-31.7-37.1-46.3c-4.6-7.3-8.3-14.1-11-19.7
	c-1.3-2.8-2.4-5.4-3.2-7.5c-0.8-2.1-1.3-3.8-1.5-4.8c-0.3-1.3-0.4-2.3-0.4-3.1c0-1.2,0.2-2.1,0.5-3.3c0.3-0.9,0.7-1.9,1.4-3.1
	c1-1.9,2.6-4.2,4.7-7c2.1-2.8,4.7-6.1,7.5-9.9c2-2.7,3.8-5.2,5.5-7.8c1.2-1.9,2.4-3.8,3.5-5.7c1.6-2.9,3-6.1,4.1-9.6
	c1-3.5,1.6-7.2,1.6-10.9c0-3.3-0.4-6.5-1.1-9.4c-1-4.5-2.5-8.6-4.3-12.8c-1.8-4.3-3.9-8.8-6.3-14c-2.9-6.1-6.7-13.3-11.1-21
	c-6.7-11.6-14.9-24.5-23.3-36.4c-4.2-6-8.5-11.7-12.7-17s-8.4-10-12.5-14.1c-3-2.9-5.6-5.4-8-7.6c-1.8-1.6-3.5-3.1-5.3-4.5
	c-2.6-2-5.3-3.9-8.7-5.4c-1.7-0.8-3.5-1.4-5.5-1.9s-4.1-0.7-6.1-0.7c-2.6,0-5,0.4-7,0.9c-1.5,0.4-2.8,0.8-3.9,1.2
	c-1.7,0.6-3,1.3-4.3,1.8S82,5,80.8,5.5c-11.3,4.8-22.2,10.6-32.5,17.3c-4.9,3.3-9.4,6.5-13.5,9.8c-6.2,5-11.7,10.2-16.5,16
	c-4.8,5.8-8.7,12.2-11.9,19.1C2.4,75.9,0,86.3,0,99.3c0,12.1,2.1,26.4,7.3,43.3c5.2,16.9,13.4,36.4,25.8,59
	c9.3,16.9,17.9,31.8,26.6,45.5c12.9,20.6,25.9,38.7,40.6,56.6c14.8,17.9,31.3,35.6,51.5,55.7c27.1,27,51.4,48.1,76.6,66.7
	c25.2,18.6,51.1,34.5,81.4,51.5c23.2,13,42.4,21.5,58.8,26.9c16.4,5.3,30,7.5,41.6,7.5c7.5,0,14.2-0.9,19.9-2.4
	c5.7-1.4,10.4-3.4,14-5.1c4.6-2.1,9-4.6,13.1-7.4c6.2-4.2,11.8-9.2,17-15c5.2-5.7,10-12.2,14.9-19.5c6.8-10.3,12.6-21.1,17.4-32.4
	c0.9-2.1,1.8-4,2.9-6.7c0.6-1.4,1.2-3,1.7-5s0.9-4.4,0.9-7C512,409.7,511.8,407.9,511.4,406.1z"/>
</svg>
