<?xml version="1.0" encoding="utf-8"?>
<!-- Generator: Adobe Illustrator 24.1.1, SVG Export Plug-In . SVG Version: 6.00 Build 0)  -->
<svg version="1.1" id="Layer_1" xmlns="http://www.w3.org/2000/svg" xmlns:xlink="http://www.w3.org/1999/xlink" x="0px" y="0px"
	 viewBox="0 0 512 512" style="enable-background:new 0 0 512 512;" xml:space="preserve">
<g>
	<path d="M427.8,0c-15.6,0-38.4,4.6-62.6,24.7C332,9.1,295.1,0.1,256,0.1C114.6,0.1,0,114.7,0,256s114.6,256,256,256
		c138,0,256-106.1,256-256V98.1C511.5,30.6,468,0,427.8,0z M448,256H283.9c-36.3,0-45-18-19.3-43.6l46.3-44.9
		c-18-11.9-39-17.6-61.1-17.6c-29.8,0-57.8,12-78.8,33.1c-21,21-32.6,49.2-32.6,78.9c0,29.9,11.6,57.9,32.6,79
		c21.1,21.1,49.1,32.7,78.8,32.7c29.7,0,57.7-11.5,78.9-32.6c5.7-5.8,10.7-11.9,15-18.5c7.1-11,19.1-17.1,31.3-17.1
		c6.9,0,13.8,1.9,20,5.9c17.3,11.1,22.3,34,11.2,51.3c-7.1,11-15.5,21.4-25,30.9c-35.1,35.2-81.8,54.5-131.4,54.5
		c-49.6,0-96.3-19.3-131.3-54.4c-35.1-35.1-54.4-81.7-54.4-131.4c0-49.6,19.3-96.4,54.5-131.3c35.1-35.1,81.7-54.4,131.3-54.4
		c41.9,0,81.6,14,114.1,39.3l36.9-37.1c10-10,19.3-14.7,26.9-14.7c12.1,0,20.1,11.9,20.2,34.1L448,256L448,256z M221.4,257.6
		c5.2,12.5,20.2,30.4,62.5,30.4h41.6c0,0-6.7,16.1-19.6,29c-12.9,12.9-34.7,23.8-56,23.8s-41.2-7.9-56.3-22.9
		c-15-15-23.3-34.8-23.3-56.1s8.3-36.4,23.2-51.3c15.1-15.1,35.1-18.6,56.3-18.6L242,196C212,225.9,216.3,245.1,221.4,257.6z"/>
</g>
</svg>
