<?xml version="1.0" encoding="utf-8"?>
<!-- Generator: Adobe Illustrator 24.1.1, SVG Export Plug-In . SVG Version: 6.00 Build 0)  -->
<svg version="1.1" id="Layer_1" xmlns="http://www.w3.org/2000/svg" xmlns:xlink="http://www.w3.org/1999/xlink" x="0px" y="0px"
	 viewBox="0 0 512 512" style="enable-background:new 0 0 512 512;" xml:space="preserve">
<g>
	<path d="M256,288v21.3c58.9,0,106.7-47.7,106.7-106.7C362.7,143.7,314.9,96,256,96c-58.9,0-106.7,47.7-106.7,106.7
		c0,58.9,47.7,106.7,106.7,106.7V288v-21.3c-35.3-0.1-63.9-28.7-64-64c0.1-35.3,28.7-63.9,64-64c35.3,0.1,63.9,28.7,64,64
		c-0.1,35.3-28.7,63.9-64,64V288z M149.3,480v-64c0-29.5,11.9-56.1,31.2-75.4c19.4-19.3,45.9-31.2,75.4-31.2
		c29.5,0,56.1,11.9,75.4,31.2c19.3,19.4,31.2,45.9,31.2,75.4v64h42.7l0-64c0-82.5-66.9-149.3-149.3-149.3
		c-82.5,0-149.3,66.9-149.3,149.3v64H149.3L149.3,480z M298.1,122.4c6-25.5,32-47.8,64.6-47.7c34.4-0.1,63.8,28.8,64,64.2l21.3-0.2
		l-21.3-0.2c-0.2,35.4-29.6,64.3-64,64.2h-21.3v42.7h21.3c29.2,0,55.8,11.9,75.2,31.3c19.4,19.4,31.4,45.9,31.4,75.4v42.7H512V352
		c-0.1-82.6-67.4-149.3-149.3-149.3h-21.3v42.7h21.3c58.3-0.1,106-47.6,106.7-106.5l0-0.2l0-0.2C468.7,79.6,421,32.1,362.7,32
		c-52.1,0.1-94.9,34.7-106.1,80.3L298.1,122.4L298.1,122.4z M255.4,112.3c-11.2-45.6-54-80.2-106.1-80.3
		C91,32.1,43.3,79.6,42.7,138.5l0,0.2l0,0.2c0.6,58.9,48.4,106.3,106.7,106.5l21.3,0v-42.7h-21.3C67.4,202.7,0.1,269.4,0,352v42.7
		h42.7V352c0-29.5,12-56,31.4-75.4c19.5-19.4,46-31.3,75.2-31.3l21.3,0v-42.7h-21.3c-34.4,0.1-63.8-28.8-64-64.2L64,138.7l21.3,0.2
		c0.2-35.4,29.6-64.3,64-64.2c32.6-0.1,58.6,22.2,64.6,47.7L255.4,112.3L255.4,112.3z"/>
</g>
</svg>
